<svg width="640" height="513" viewBox="0 0 640 513" fill="none" xmlns="http://www.w3.org/2000/svg">
<path d="M392.775 1.25413C375.775 -3.64587 358.075 6.25413 353.175 23.2541L225.175 471.254C220.275 488.254 230.175 505.954 247.175 510.854C264.175 515.754 281.875 505.854 286.775 488.854L414.775 40.8541C419.675 23.8541 409.775 6.15413 392.775 1.25413ZM473.375 121.354C460.875 133.854 460.875 154.154 473.375 166.654L562.675 256.054L473.275 345.454C460.775 357.954 460.775 378.254 473.275 390.754C485.775 403.254 506.075 403.254 518.575 390.754L630.575 278.754C643.075 266.254 643.075 245.954 630.575 233.454L518.575 121.454C506.075 108.954 485.775 108.954 473.275 121.454L473.375 121.354ZM166.675 121.354C154.175 108.854 133.875 108.854 121.375 121.354L9.375 233.354C-3.125 245.854 -3.125 266.154 9.375 278.654L121.375 390.654C133.875 403.154 154.175 403.154 166.675 390.654C179.175 378.154 179.175 357.854 166.675 345.354L77.275 256.054L166.675 166.654C179.175 154.154 179.175 133.854 166.675 121.354Z" fill="#FE4A49"/>
</svg>
